<?xml version="1.0" standalone="no"?>
<!DOCTYPE svg PUBLIC "-//W3C//DTD SVG 20010904//EN"
 "http://www.w3.org/TR/2001/REC-SVG-20010904/DTD/svg10.dtd">
<svg version="1.0" xmlns="http://www.w3.org/2000/svg"
 width="100.000000pt" height="100.000000pt" viewBox="0 0 100.000000 100.000000"
 preserveAspectRatio="xMidYMid meet">
<g transform="translate(0.000000,100.000000) scale(0.100000,-0.100000)"
fill="#ffffff" stroke="none">
<path d="M339 681 c-86 -88 -174 -202 -180 -231 -11 -53 28 -89 158 -145 106
-47 163 -45 163 6 0 24 -68 82 -123 105 -50 20 -57 33 -31 55 23 19 152 203
163 232 7 18 5 30 -5 46 -27 39 -54 26 -145 -68z m101 20 c0 -4 -36 -59 -80
-121 -44 -62 -80 -121 -80 -131 0 -26 30 -53 90 -84 61 -31 70 -59 13 -43 -60
16 -172 78 -178 99 -10 32 35 97 154 222 61 63 81 78 81 58z"/>
<path d="M602 663 c-104 -108 -172 -203 -172 -238 0 -30 53 -74 134 -113 119
-58 164 -63 187 -20 9 16 7 26 -7 45 -20 26 -115 83 -139 83 -30 0 -24 21 19
75 69 84 146 202 146 223 0 25 -19 42 -49 42 -20 0 -49 -24 -119 -97z m108 31
c0 -13 -26 -54 -85 -134 -34 -47 -65 -94 -69 -106 -8 -28 11 -51 74 -88 61
-36 79 -63 35 -52 -14 4 -61 24 -103 44 -69 34 -77 41 -80 69 -3 35 43 99 152
211 55 56 76 72 76 56z"/>
</g>
</svg>
