<svg width="16" height="17" viewBox="0 0 16 17" fill="none" xmlns="http://www.w3.org/2000/svg">
<g clip-path="url(#clip0_7_30)">
<path d="M4.68266 2.03999C5.18331 2.20958 5.65958 2.44402 6.09933 2.73732C6.72038 2.5786 7.35898 2.49886 8 2.49999C8.66199 2.49999 9.30066 2.58266 9.89933 2.73666C10.3389 2.44364 10.815 2.20943 11.3153 2.03999C11.78 1.88199 12.442 1.62599 12.8353 2.06132C13.102 2.35732 13.1687 2.85332 13.216 3.23199C13.2693 3.65466 13.282 4.20532 13.142 4.75199C13.6773 5.44332 14 6.26799 14 7.16666C14 8.52799 13.2627 9.70999 12.1713 10.5287C11.6461 10.9177 11.0636 11.2227 10.4447 11.4327C10.5873 11.7593 10.6667 12.1207 10.6667 12.5V14.5C10.6667 14.6768 10.5964 14.8464 10.4714 14.9714C10.3464 15.0964 10.1768 15.1667 10 15.1667H6C5.82318 15.1667 5.65361 15.0964 5.52859 14.9714C5.40357 14.8464 5.33333 14.6768 5.33333 14.5V13.8393C4.69666 13.9173 4.16266 13.848 3.70866 13.6553C3.234 13.454 2.90333 13.142 2.65466 12.8433C2.41866 12.5607 2.16133 11.9233 1.78933 11.7993C1.70625 11.7717 1.62943 11.7279 1.56325 11.6705C1.49708 11.6132 1.44285 11.5434 1.40367 11.4651C1.32453 11.3069 1.31146 11.1238 1.36733 10.956C1.4232 10.7882 1.54344 10.6495 1.7016 10.5703C1.85975 10.4912 2.04287 10.4781 2.21066 10.534C2.65466 10.682 2.944 11.002 3.142 11.2593C3.462 11.6727 3.722 12.2127 4.22866 12.428C4.43733 12.5167 4.74333 12.5747 5.222 12.5093L5.33333 12.4867C5.3346 12.1239 5.41015 11.7652 5.55533 11.4327C4.93639 11.2227 4.35387 10.9177 3.82866 10.5287C2.73733 9.70999 2 8.52866 2 7.16666C2 6.26932 2.322 5.44532 2.856 4.75466C2.716 4.20799 2.728 3.65599 2.78133 3.23266L2.78466 3.20732C2.83333 2.81932 2.89 2.36266 3.162 2.06132C3.55533 1.62599 4.218 1.88266 4.682 2.04066L4.68266 2.03999Z" fill="#F1F1F1"/>
</g>
<defs>
<clipPath id="clip0_7_30">
<rect width="16" height="16" fill="white" transform="translate(0 0.5)"/>
</clipPath>
</defs>
</svg>
