<svg width="16" height="17" viewBox="0 0 16 17" fill="none" xmlns="http://www.w3.org/2000/svg">
<g clip-path="url(#clip0_7_22)">
<path fill-rule="evenodd" clip-rule="evenodd" d="M12 2.5C12.5304 2.5 13.0391 2.71071 13.4142 3.08579C13.7893 3.46086 14 3.96957 14 4.5V12.5C14 13.0304 13.7893 13.5391 13.4142 13.9142C13.0391 14.2893 12.5304 14.5 12 14.5H4C3.46957 14.5 2.96086 14.2893 2.58579 13.9142C2.21071 13.5391 2 13.0304 2 12.5V4.5C2 3.96957 2.21071 3.46086 2.58579 3.08579C2.96086 2.71071 3.46957 2.5 4 2.5H12ZM5.33333 7.16667C5.15652 7.16667 4.98695 7.2369 4.86193 7.36193C4.7369 7.48695 4.66667 7.65652 4.66667 7.83333V11.1667C4.66667 11.3435 4.7369 11.513 4.86193 11.6381C4.98695 11.7631 5.15652 11.8333 5.33333 11.8333C5.51014 11.8333 5.67971 11.7631 5.80474 11.6381C5.92976 11.513 6 11.3435 6 11.1667V7.83333C6 7.65652 5.92976 7.48695 5.80474 7.36193C5.67971 7.2369 5.51014 7.16667 5.33333 7.16667ZM7.33333 6.5C7.15652 6.5 6.98695 6.57024 6.86193 6.69526C6.7369 6.82029 6.66667 6.98986 6.66667 7.16667V11.1667C6.66667 11.3435 6.7369 11.513 6.86193 11.6381C6.98695 11.7631 7.15652 11.8333 7.33333 11.8333C7.51014 11.8333 7.67971 11.7631 7.80474 11.6381C7.92976 11.513 8 11.3435 8 11.1667V8.72667C8.26009 8.44375 8.5764 8.21827 8.92867 8.06467C9.15067 7.97 9.48467 7.93133 9.71667 8.00467C9.79363 8.02419 9.86218 8.06817 9.912 8.13C9.94667 8.17667 10 8.28067 10 8.5V11.1667C10 11.3435 10.0702 11.513 10.1953 11.6381C10.3203 11.7631 10.4899 11.8333 10.6667 11.8333C10.8435 11.8333 11.013 11.7631 11.1381 11.6381C11.2631 11.513 11.3333 11.3435 11.3333 11.1667V8.5C11.3333 8.05333 11.22 7.656 10.984 7.33733C10.7668 7.04837 10.4629 6.83648 10.1167 6.73267C9.51533 6.544 8.84933 6.64867 8.40467 6.83933C8.26219 6.90031 8.1235 6.96977 7.98933 7.04733C7.96139 6.89373 7.88041 6.7548 7.76053 6.65478C7.64065 6.55475 7.48946 6.49998 7.33333 6.5ZM5.33333 5.16667C5.15652 5.16667 4.98695 5.2369 4.86193 5.36193C4.7369 5.48695 4.66667 5.65652 4.66667 5.83333C4.66667 6.01014 4.7369 6.17971 4.86193 6.30474C4.98695 6.42976 5.15652 6.5 5.33333 6.5C5.51014 6.5 5.67971 6.42976 5.80474 6.30474C5.92976 6.17971 6 6.01014 6 5.83333C6 5.65652 5.92976 5.48695 5.80474 5.36193C5.67971 5.2369 5.51014 5.16667 5.33333 5.16667Z" fill="#F1F1F1"/>
</g>
<defs>
<clipPath id="clip0_7_22">
<rect width="16" height="16" fill="white" transform="translate(0 0.5)"/>
</clipPath>
</defs>
</svg>
