<svg width="16" height="17" viewBox="0 0 16 17" fill="none" xmlns="http://www.w3.org/2000/svg">
<g clip-path="url(#clip0_7_26)">
<path d="M1.37868 4.15466L7.29534 10.072C7.47038 10.2471 7.70417 10.3511 7.95147 10.3638C8.19876 10.3765 8.44197 10.297 8.63401 10.1407L8.71001 10.072L14.6227 4.15866C14.642 4.23199 14.6547 4.30666 14.6613 4.38332L14.6667 4.49999V12.5C14.6668 12.8364 14.5397 13.1604 14.311 13.407C14.0823 13.6537 13.7688 13.8048 13.4333 13.83L13.3333 13.8333H2.66668C2.33029 13.8334 2.0063 13.7064 1.75964 13.4777C1.51299 13.2489 1.36191 12.9354 1.33668 12.6L1.33334 12.5V4.49999C1.33334 4.41999 1.34001 4.34266 1.35334 4.26666L1.37868 4.15466ZM13.3333 3.16666C13.414 3.16666 13.4933 3.17332 13.57 3.18732L13.6833 3.21332L8.00334 8.89332L2.32134 3.21199C2.39468 3.19199 2.47068 3.17866 2.54801 3.17199L2.66668 3.16666H13.3333Z" fill="#869F9E"/>
</g>
<defs>
<clipPath id="clip0_7_26">
<rect width="16" height="16" fill="white" transform="translate(0 0.5)"/>
</clipPath>
</defs>
</svg>
