<svg width="16" height="17" viewBox="0 0 16 17" fill="none" xmlns="http://www.w3.org/2000/svg">
<g clip-path="url(#clip0_7_259)">
<path d="M10.6667 2.5C11.1768 2.49997 11.6677 2.69488 12.0389 3.04486C12.41 3.39483 12.6334 3.8734 12.6633 4.38267L12.6667 4.5V11.1667H13.1667C13.598 11.1667 13.9533 11.4947 13.996 11.9147L14 12V13.1667C14 13.6768 13.8051 14.1677 13.4552 14.5388C13.1052 14.91 12.6266 15.1334 12.1173 15.1633L12 15.1667H5.33334C4.8232 15.1667 4.33233 14.9718 3.96117 14.6218C3.59001 14.2718 3.36661 13.7933 3.33668 13.284L3.33334 13.1667V6.5H2.16668C1.96037 6.50009 1.76136 6.42366 1.60817 6.28548C1.45497 6.14731 1.35847 5.95722 1.33734 5.752L1.33334 5.66667V4.5C1.33332 3.98986 1.52823 3.49899 1.8782 3.12783C2.22817 2.75666 2.70675 2.53326 3.21601 2.50333L3.33334 2.5H10.6667ZM12.6667 12.5H6.66668V13.1667C6.66668 13.4 6.62668 13.6247 6.55334 13.8333H12C12.1768 13.8333 12.3464 13.7631 12.4714 13.6381C12.5964 13.513 12.6667 13.3435 12.6667 13.1667V12.5ZM8.00001 8.5H6.66668C6.49676 8.50019 6.33332 8.56525 6.20976 8.6819C6.08621 8.79854 6.01185 8.95797 6.0019 9.1276C5.99194 9.29722 6.04713 9.46425 6.15619 9.59455C6.26525 9.72486 6.41995 9.8086 6.58868 9.82867L6.66668 9.83333H8.00001C8.16993 9.83315 8.33337 9.76808 8.45692 9.65143C8.58048 9.53479 8.65483 9.37536 8.66479 9.20574C8.67475 9.03611 8.61956 8.86908 8.5105 8.73878C8.40144 8.60848 8.24674 8.52474 8.07801 8.50467L8.00001 8.5ZM9.33334 5.83333H6.66668C6.48987 5.83333 6.3203 5.90357 6.19527 6.0286C6.07025 6.15362 6.00001 6.32319 6.00001 6.5C6.00001 6.67681 6.07025 6.84638 6.19527 6.9714C6.3203 7.09643 6.48987 7.16667 6.66668 7.16667H9.33334C9.51015 7.16667 9.67972 7.09643 9.80475 6.9714C9.92977 6.84638 10 6.67681 10 6.5C10 6.32319 9.92977 6.15362 9.80475 6.0286C9.67972 5.90357 9.51015 5.83333 9.33334 5.83333ZM3.33334 3.83333C3.15653 3.83333 2.98696 3.90357 2.86194 4.0286C2.73691 4.15362 2.66668 4.32319 2.66668 4.5V5.16667H3.33334V3.83333Z" fill="#F1F1F1"/>
</g>
<defs>
<clipPath id="clip0_7_259">
<rect width="16" height="16" fill="white" transform="translate(0 0.5)"/>
</clipPath>
</defs>
</svg>
