<svg width="16" height="17" viewBox="0 0 16 17" fill="none" xmlns="http://www.w3.org/2000/svg">
<g clip-path="url(#clip0_7_34)">
<path fill-rule="evenodd" clip-rule="evenodd" d="M7.99999 3.16666C8.56999 3.16666 9.15466 3.18132 9.72133 3.20532L10.3907 3.23732L11.0313 3.27532L11.6313 3.31599L12.1793 3.35866C12.774 3.40417 13.3336 3.65795 13.7597 4.07535C14.1857 4.49274 14.4509 5.04702 14.5087 5.64066L14.5353 5.92399L14.5853 6.53066C14.632 7.15932 14.6667 7.84466 14.6667 8.49999C14.6667 9.15532 14.632 9.84066 14.5853 10.4693L14.5353 11.076C14.5267 11.1733 14.518 11.2673 14.5087 11.3593C14.4509 11.9531 14.1856 12.5074 13.7594 12.9248C13.3332 13.3422 12.7735 13.596 12.1787 13.6413L11.632 13.6833L11.032 13.7247L10.3907 13.7627L9.72133 13.7947C9.14788 13.8196 8.57398 13.8325 7.99999 13.8333C7.42601 13.8325 6.85211 13.8196 6.27866 13.7947L5.60933 13.7627L4.96866 13.7247L4.36866 13.6833L3.82066 13.6413C3.22596 13.5958 2.66636 13.342 2.24031 12.9246C1.81426 12.5072 1.54904 11.953 1.49133 11.3593L1.46466 11.076L1.41466 10.4693C1.36369 9.81408 1.33656 9.1572 1.33333 8.49999C1.33333 7.84466 1.36799 7.15932 1.41466 6.53066L1.46466 5.92399C1.47333 5.82666 1.48199 5.73266 1.49133 5.64066C1.54902 5.04712 1.81414 4.49293 2.24006 4.07555C2.66597 3.65817 3.22541 3.40432 3.81999 3.35866L4.36733 3.31599L4.96733 3.27532L5.60866 3.23732L6.27799 3.20532C6.85166 3.18041 7.42579 3.16752 7.99999 3.16666ZM6.66666 6.88332V10.1167C6.66666 10.4247 6.99999 10.6167 7.26666 10.4633L10.0667 8.84666C10.1276 8.81158 10.1782 8.76107 10.2134 8.70021C10.2486 8.63935 10.2671 8.57029 10.2671 8.49999C10.2671 8.42969 10.2486 8.36063 10.2134 8.29977C10.1782 8.23891 10.1276 8.1884 10.0667 8.15332L7.26666 6.53732C7.20583 6.5022 7.13683 6.48372 7.0666 6.48373C6.99636 6.48374 6.92737 6.50225 6.86655 6.53739C6.80573 6.57253 6.75524 6.62306 6.72015 6.6839C6.68507 6.74474 6.66662 6.81375 6.66666 6.88399V6.88332Z" fill="hsl(108, 38%, 82%)"/>
</g>
<defs>
<clipPath id="clip0_7_34">
<rect width="16" height="16" fill="white" transform="translate(0 0.5)"/>
</clipPath>
</defs>
</svg>
